<mxfile host="app.diagrams.net" modified="2023-05-26T04:48:39.581Z" agent="Mozilla/5.0 (Macintosh; Intel Mac OS X 10_15_7) AppleWebKit/537.36 (KHTML, like Gecko) Chrome/113.0.0.0 Safari/537.36" version="21.3.4" etag="LgX_-T3VP4_0h1YJ93P6" type="github">
  <diagram name="페이지-1" id="Ypz27ZIjXX_cUuuUE0dQ">
    <mxGraphModel>
      <root>
        <mxCell id="0" />
        <mxCell id="1" parent="0" />
      </root>
    </mxGraphModel>
  </diagram>
</mxfile>
